<svg width="210" height="40" viewBox="0 0 210 40" xmlns="http://www.w3.org/2000/svg">
    <g fill="none" fill-rule="evenodd">
        <path d="M95.58 16.135c-.107-.35-.532-.464-.802-.237-.694.587-1.46 1.055-2.286 1.396-.21-6.106-4.724-11.177-10.733-12.138-.42-.066-.73.383-.51.748 1.52 2.582 1.64 5.706.44 8.343-.59-.81-1.03-1.705-1.31-2.668-.1-.34-.53-.48-.81-.25C77.3 13.24 76 16.03 76 19c0 5.584 4.525 10 10 10 5.514 0 10-4.485 10-10 0-.976-.142-1.94-.42-2.865zM86 28.5c-2.27 0-4-1.84-4-4.113 0-3.32 2.39-6.448 5.656-7.2-1.864 1.373-1.762 4.035-1.027 5.143.5-.413.95-.863 1.02-1.54 1.72.676 2.34 2.134 2.34 3.71 0 2.272-1.73 4-4 4z" fill="#F8E81C" fill-rule="nonzero"/>
        <path d="M24.392 22.427c0 .996-.2 1.834-.6 2.512-.4.67-.93 1.22-1.59 1.63-.66.41-1.413.71-2.256.89-.843.18-1.707.27-2.594.27H10V9.49h7.352c.713 0 1.443.073 2.19.22.748.145 1.426.394 2.034.746.608.352 1.104.83 1.486 1.43.382.602.574 1.366.574 2.294 0 1.014-.28 1.85-.835 2.513-.55.66-1.28 1.138-2.19 1.43v.052c.53.085 1.02.244 1.48.476.46.24.86.53 1.2.89.34.36.61.79.81 1.27.2.48.3 1.02.3 1.63zm-5.058-7.654c0-.62-.24-1.07-.717-1.353-.478-.284-1.187-.425-2.125-.425h-2.19v3.762H16.7c.835 0 1.482-.167 1.943-.502.46-.335.69-.83.69-1.482zm.6 7.24c0-.755-.287-1.28-.86-1.57-.575-.293-1.34-.44-2.295-.44H14.3v4.176h2.503c.347 0 .708-.03 1.082-.09.373-.06.712-.17 1.017-.33.304-.16.55-.38.743-.66.19-.29.286-.65.286-1.1zm21.795.414c0 .996-.2 1.834-.6 2.512-.4.67-.93 1.22-1.59 1.63-.66.41-1.42.71-2.26.89-.85.18-1.71.27-2.6.27h-7.35V9.49h7.35c.71 0 1.44.073 2.19.22.74.145 1.42.394 2.03.746.6.352 1.1.83 1.48 1.43.38.602.57 1.366.57 2.294 0 1.014-.28 1.85-.84 2.513-.56.66-1.29 1.138-2.19 1.43v.052c.52.085 1.01.244 1.47.476.46.24.86.53 1.2.89.34.36.61.79.81 1.27.2.48.3 1.02.3 1.63zm-5.06-7.654c0-.62-.24-1.07-.72-1.353-.48-.284-1.19-.425-2.13-.425h-2.19v3.762h2.39c.83 0 1.48-.167 1.94-.502.46-.335.69-.83.69-1.482zm.6 7.24c0-.755-.29-1.28-.86-1.57-.58-.293-1.34-.44-2.3-.44h-2.47v4.176h2.5c.34 0 .71-.03 1.08-.09s.71-.17 1.01-.33c.31-.16.55-.38.75-.66.19-.29.28-.65.28-1.1zm16.29 5.723c-1.46 0-2.8-.207-4.02-.62-1.22-.41-2.26-1.017-3.12-1.816-.86-.8-1.53-1.778-2.01-2.938-.48-1.16-.72-2.487-.72-3.98 0-1.393.25-2.664.76-3.815.5-1.152 1.2-2.14 2.1-2.964.89-.825 1.95-1.465 3.18-1.92C50.97 9.228 52.3 9 53.72 9s2.746.228 3.96.683c1.22.455 2.27 1.09 3.157 1.907.88.816 1.57 1.795 2.07 2.938.49 1.142.74 2.4.74 3.775 0 .705-.08 1.362-.237 1.972-.15.61-.36 1.164-.62 1.662s-.55.94-.88 1.327c-.33.387-.66.71-.99.967v.08l3.882-.07v3.51H53.57zm5.37-9.304c0-.79-.13-1.52-.38-2.19-.26-.67-.61-1.246-1.07-1.727-.46-.48-1.02-.855-1.66-1.12-.65-.267-1.35-.4-2.11-.4-.75 0-1.44.133-2.08.4-.64.265-1.19.64-1.66 1.12-.47.48-.83 1.057-1.1 1.727-.26.67-.39 1.4-.39 2.19 0 .825.12 1.577.38 2.255.25.68.61 1.263 1.07 1.753.46.49 1 .867 1.64 1.134.63.266 1.33.4 2.1.4.75 0 1.44-.134 2.08-.4.64-.267 1.2-.645 1.67-1.134.46-.49.83-1.074 1.09-1.753.26-.678.39-1.43.39-2.255zm62.21 9.304l-1.44-3.583h-7.15l-1.36 3.583h-4.85L114.1 9.49h4.33l7.668 18.246h-4.955zM116.2 14.36l-2.347 6.263h4.64L116.2 14.36zm25.976 12.164c0 1.255-.182 2.345-.547 3.273-.37.928-.88 1.697-1.54 2.307-.66.61-1.47 1.065-2.41 1.366-.95.3-2 .45-3.15.45s-2.33-.17-3.54-.515c-1.21-.343-2.26-.842-3.14-1.495l2.14-3.015c.62.55 1.31.958 2.07 1.224s1.5.4 2.23.4c1.25 0 2.17-.33 2.77-.98.6-.66.9-1.52.9-2.61v-.78h-.08c-.4.51-.94.92-1.62 1.23-.68.31-1.45.46-2.32.46-.99 0-1.87-.18-2.64-.53-.77-.35-1.42-.83-1.95-1.43s-.94-1.3-1.22-2.1-.42-1.65-.42-2.54c0-.89.14-1.75.42-2.55.28-.81.684-1.52 1.214-2.14.53-.62 1.176-1.11 1.94-1.48.76-.37 1.63-.56 2.604-.56.816 0 1.6.16 2.346.49.747.32 1.347.83 1.8 1.52h.05V14.9h4.04v11.623zm-4.067-5.283c0-.42-.08-.84-.23-1.23-.15-.39-.36-.74-.64-1.04-.28-.3-.61-.53-.99-.71-.39-.17-.82-.26-1.31-.26-.49 0-.92.09-1.29.26-.38.17-.69.41-.95.7-.26.3-.46.64-.6 1.03-.14.4-.21.82-.21 1.27 0 .43.07.85.21 1.24.14.4.34.75.6 1.05.26.3.57.54.95.72.37.18.8.27 1.29.27.48 0 .92-.09 1.31-.27.39-.18.72-.41.99-.71.27-.29.48-.63.62-1.03.15-.39.22-.81.22-1.26zm16.39-1.39c0-.67-.22-1.24-.64-1.72-.43-.48-1.07-.72-1.92-.72-.42 0-.8.07-1.15.2-.35.13-.65.31-.92.53-.26.23-.47.49-.63.79-.16.3-.25.62-.26.94h5.5zm3.93 1.63V22c0 .17-.01.335-.03.49H149c.036.36.144.686.327.98.182.29.417.544.704.76.29.214.61.38.97.5s.73.18 1.11.18c.68 0 1.25-.123 1.72-.372.47-.25.85-.57 1.15-.965l2.98 1.857c-.61.876-1.41 1.55-2.41 2.023-1 .47-2.16.706-3.48.706-.97 0-1.89-.15-2.76-.45-.87-.3-1.63-.74-2.28-1.32-.65-.58-1.16-1.29-1.54-2.13-.37-.84-.56-1.81-.56-2.89 0-1.05.18-2 .55-2.85.37-.85.86-1.57 1.49-2.17.63-.59 1.37-1.05 2.22-1.38.85-.33 1.77-.49 2.77-.49.957 0 1.835.16 2.63.48.8.31 1.486.77 2.06 1.38.57.6 1.02 1.33 1.34 2.19.32.85.48 1.83.48 2.93zm11.18 6.27v-7.01c0-.36-.03-.7-.09-1.03-.07-.32-.17-.61-.3-.86-.14-.25-.34-.44-.59-.59-.25-.14-.57-.22-.95-.22s-.72.08-1.01.22c-.29.15-.53.35-.72.61-.19.26-.34.56-.43.89-.1.34-.15.68-.15 1.04v6.96h-4.3V14.9h4.14v1.778h.05c.16-.275.36-.546.61-.812s.55-.494.883-.683c.34-.19.71-.344 1.11-.464.4-.12.826-.18 1.28-.18.87 0 1.603.15 2.212.46.6.31 1.1.71 1.47 1.2s.64 1.05.81 1.69c.16.63.242 1.27.242 1.9v7.94h-4.3zm16.47-8.68c-.25-.31-.58-.56-.99-.74-.42-.19-.85-.28-1.28-.28-.46 0-.86.09-1.23.27-.37.18-.68.42-.94.73-.26.3-.47.65-.61 1.05-.15.4-.22.82-.22 1.27 0 .444.07.865.2 1.26.14.396.34.743.61 1.044.27.3.59.535.96.71.37.17.79.254 1.26.254.44 0 .87-.08 1.29-.243.42-.16.77-.4 1.03-.71l2.37 2.86c-.54.52-1.238.92-2.09 1.21-.85.294-1.76.44-2.71.44-1.03 0-1.987-.155-2.87-.46-.89-.31-1.66-.76-2.31-1.357-.653-.59-1.166-1.31-1.54-2.15-.373-.84-.56-1.795-.56-2.86 0-1.05.187-1.993.56-2.835.374-.844.887-1.56 1.54-2.154.65-.59 1.42-1.043 2.306-1.36.89-.32 1.836-.476 2.84-.476.47 0 .94.04 1.4.13.46.08.9.2 1.33.345.423.145.814.325 1.17.54.36.215.665.45.93.71l-2.48 2.834zm14.08 10.7c-.26.67-.56 1.27-.88 1.79-.33.53-.71.98-1.15 1.34-.45.37-.97.65-1.57.84-.6.19-1.31.29-2.13.29-.4 0-.81-.02-1.24-.07-.43-.05-.8-.12-1.11-.2l.47-3.55c.21.07.44.12.69.166.25.045.48.066.69.066.66 0 1.14-.15 1.432-.45.294-.3.55-.73.76-1.28l.42-1.052L191.14 15h4.745l2.89 8.25h.08l2.58-8.248H206l-5.814 14.764z" fill="#FFF"/>
    </g>
</svg>