<svg width="130" height="117" viewBox="0 0 130 117" xmlns="http://www.w3.org/2000/svg">
    <defs>
        <filter x="-50%" y="-50%" width="200%" height="200%" filterUnits="objectBoundingBox" id="a">
            <feOffset dy="2" in="SourceAlpha" result="shadowOffsetOuter1"/>
            <feGaussianBlur stdDeviation="4.5" in="shadowOffsetOuter1" result="shadowBlurOuter1"/>
            <feColorMatrix values="0 0 0 0 0 0 0 0 0 0 0 0 0 0 0 0 0 0 0.123924366 0" in="shadowBlurOuter1" result="shadowMatrixOuter1"/>
            <feMerge>
                <feMergeNode in="shadowMatrixOuter1"/>
                <feMergeNode in="SourceGraphic"/>
            </feMerge>
        </filter>
    </defs>
    <g filter="url(#a)" transform="translate(7 7)" fill="#FFF" fill-rule="evenodd">
        <path d="M33.407 48.786c-.823-1.182-1.792-2.066-2.907-2.655-1.116-.58-2.368-.89-3.754-.93-1.39-.03-2.88.14-4.48.54-.932.23-1.812.46-2.64.68-.83.23-1.44.41-1.83.55.075.45.172.91.29 1.38l.38 1.55 1.624 6.6c.542 2.05.957 3.53 1.247 4.42.292.9.528 1.57.713 2.03.266.65.672 1.26 1.215 1.82.545.56 1.192 1.04 1.946 1.44.76.41 1.58.68 2.48.81.9.14 1.85.08 2.85-.17 1.07-.26 2.02-.72 2.84-1.39.83-.66 1.47-1.54 1.92-2.64.46-1.09.7-2.43.74-3.99.04-1.56-.19-3.37-.7-5.43-.46-1.86-1.1-3.38-1.92-4.57"/>
        <path d="M89.713 75.554c-.22.024-.42.027-.606.012l-.646-.054c-2.42-.2-4.6-.945-6.54-2.235-1.93-1.286-3.54-2.98-4.82-5.078-.56-.93-1.05-1.94-1.48-3.02-.43 1.01-.93 1.98-1.5 2.91-1.03 1.69-2.22 3.24-3.57 4.65-1.34 1.41-2.76 2.61-4.24 3.61-1.48.99-2.98 1.77-4.51 2.34-1.53.57-2.95.87-4.26.89-.78.01-1.76-.07-2.93-.24-1.17-.18-2.38-.42-3.62-.73-1.24-.31-2.45-.68-3.62-1.07-1.18-.4-2.16-.82-2.95-1.26-.93.75-1.36 1.24-2.8 2.02-.48.26-.9.4-1.64.61-1.85.1-2.4-1.53-2.22-1.79.5-.21 1.55-.56 1.98-1.05.68-.78 1.17-1.82 1.48-3.13.14-.79.28-2.04.42-3.74.13-1.7.22-3.74.28-6.12.04-1.69.06-3.51.07-5.46-.082.23-.14.47-.235.7-.58 1.38-1.304 2.69-2.18 3.94-.87 1.24-1.84 2.35-2.89 3.32s-2.15 1.8-3.31 2.48c-1.15.68-2.27 1.16-3.33 1.42-.63.15-1.44.28-2.42.37-.986.095-2.006.15-3.063.155-1.06.01-2.1-.02-3.12-.08-1.024-.06-1.89-.17-2.6-.34-.537.812-.89 1.355-2.02 2.172-1.4 1.01-2.5-.68-2.5-.68.246-.21.47-.46.665-.76.435-.674.67-1.496.716-2.476 0-.585-.08-1.49-.24-2.71-.16-1.22-.4-2.674-.73-4.36-.32-1.68-.71-3.55-1.17-5.6-.45-2.053-.95-4.21-1.51-6.462-1.27-5.15-2.37-9.13-3.31-11.94-.94-2.817-1.646-4.39-2.12-4.74-.05-.03-.117-.047-.17-.07-1.76 4.23-2.89 8.74-3.22 13.47-.887 12.3 3.7 23.89 11.48 33.08-2.103 4.8-6.48 11.64-14.7 12.34 0 0 15.46 6.43 27.093-1.425 7.695 4.98 16.628 8.17 25.86 8.81 16.696 1.16 35.13-5.93 47.283-17.88-1.714-1.58-7.048-3.78-7.766-4.06-.71-.29-2.06-.59-2.75-.77M49.66 41.89c.41.076.894.137 1.45.183.555.047 1.14.074 1.757.093.616.014 1.173.016 1.666.005.78-.01 1.46-.07 2.03-.16.57-.1 1.08-.25 1.5-.45.43-.21.83-.45 1.19-.74.365-.28.728-.66 1.09-1.12.68-.75 1.3-1.95 1.864-3.6.56-1.64.815-3.92.755-6.8-.04-2.03-.286-3.82-.73-5.37-.44-1.54-1-2.83-1.68-3.86-.68-1.03-1.445-1.79-2.296-2.28-.856-.49-1.734-.73-2.636-.71-.453.01-1.006.11-1.66.29-.652.19-1.28.47-1.892.85-.606.38-1.16.9-1.66 1.56s-.82 1.45-.967 2.35c-.07.74-.13 1.76-.18 3.06-.05 1.31-.1 2.82-.15 4.55-.05 1.73-.08 3.6-.1 5.6-.02 2.01-.03 4.09-.02 6.24.05.17.28.3.69.37"/>
        <path d="M20.362 44.03c.503-.105.958-.207 1.357-.306.63-.155 1.17-.318 1.62-.492.45-.177.83-.375 1.15-.6.31-.225.6-.474.85-.745.25-.27.49-.602.71-.993.43-.654.75-1.615.96-2.883.2-1.26.05-2.91-.45-4.93-.36-1.42-.83-2.64-1.44-3.65-.6-1-1.26-1.8-1.97-2.41-.72-.6-1.46-.99-2.23-1.18-.77-.19-1.53-.19-2.26-.01-.37.09-.8.27-1.31.51-.51.25-.97.57-1.41.95-.44.38-.81.85-1.11 1.41-.31.56-.45 1.17-.42 1.84.06.53.17 1.26.32 2.19.16.93.35 2.01.58 3.23.23 1.23.49 2.55.79 3.96.3 1.42.61 2.89.95 4.4.06.11.27.16.61.14.35-.02.75-.07 1.21-.14.46-.07.94-.16 1.44-.26M93.36 32.6c-4.79-.5-9.302 8.156-10.465 19.37-1.16 11.21 1.465 20.74 6.254 21.234 4.79.497 9.17-8.166 10.33-19.38 1.16-11.213-1.33-20.73-6.12-21.227"/>
        <path d="M59.79.122C38.4-1.366 16.71 10.862 7.568 29.39c.758-.154 1.456-.308 2.076-.46.867-.214 1.635-.57 2.307-1.072.68-.502 1.36-1.046 2.06-1.64.71-.59 1.49-1.163 2.37-1.714.87-.55 1.94-.98 3.21-1.293 1.57-.38 3.07-.58 4.52-.6 1.45-.02 2.75.18 3.91.58 1.16.41 2.16 1.06 3 1.94.84.89 1.43 2.03 1.77 3.41.39 1.59.47 3.09.22 4.52-.25 1.43-.67 2.74-1.28 3.94-.6 1.2-1.29 2.26-2.07 3.19-.78.93-1.51 1.67-2.19 2.21 1.27-.18 2.67-.27 4.23-.25 1.56.02 3.07.26 4.53.72 1.46.46 2.77 1.22 3.93 2.28.74.67 1.31 1.53 1.77 2.54-.01-.55-.01-1.09-.02-1.65-.15-7.35-.413-13.07-.79-17.16-.37-4.09-.63-6.32-1.25-7.05-.3-.36-.75-.59-1.25-.78-.495-.18-1-.3-1.51-.35-.23-.02-.44-.01-.66-.02l-.01-.02c-1.26-2.78 2.113-2.2 3-2.25h.003c.63.04 1.28.07 1.95.09 1.07.04 2.03.04 2.9.03 1.07-.023 2.06-.27 2.97-.74.91-.47 1.85-1 2.83-1.584.97-.584 2.04-1.115 3.2-1.59 1.16-.48 2.52-.73 4.08-.764 1.93-.04 3.74.15 5.434.57 1.69.417 3.16 1.08 4.41 1.984 1.25.91 2.25 2.09 3 3.54.75 1.46 1.148 3.172 1.19 5.15.045 2.26-.26 4.314-.92 6.17-.66 1.85-1.5 3.492-2.52 4.93-1.02 1.43-2.1 2.66-3.25 3.67-1.15 1.014-2.196 1.79-3.13 2.31 1.524.142 3.19.46 5.01.96 1.82.502 3.52 1.29 5.1 2.354 1.02.69 1.92 1.54 2.73 2.52.39-1.8.934-3.525 1.67-5.16 1.235-2.728 2.775-5.09 4.63-7.098 1.85-2 3.91-3.53 6.184-4.594 2.27-1.068 4.56-1.506 6.864-1.31 2.095.17 4.035.833 5.828 1.99 1.797 1.152 3.32 2.704 4.587 4.652 1.26 1.95 2.2 4.264 2.81 6.94.61 2.68.786 5.63.52 8.85-.19 2.32-.66 4.585-1.4 6.78-.74 2.195-1.65 4.224-2.73 6.08-1.08 1.86-2.3 3.52-3.64 4.97-1.34 1.45-2.7 2.582-4.07 3.42.51.16 1.26.344 2.25.55.99.21 2.08.45 3.26.733 1.18.28 2.14.537 3.36.9 5.2-6.532 8.6-14.16 9.17-22.47C115.57 26.09 86.91 2.02 59.79.13"/>
        <path d="M64.172 48.123c-1.154-1.133-2.536-1.94-4.147-2.415-1.614-.477-3.403-.693-5.374-.652-1.14.023-2.23.06-3.26.106-1.02.053-1.78.108-2.27.176-.03.62-.03 1.274-.02 1.952l.05 2.202.2 9.41c.1 2.938.21 5.06.32 6.357.11 1.29.21 2.28.31 2.96.14.95.46 1.9.95 2.82.5.92 1.13 1.77 1.9 2.54.78.78 1.68 1.39 2.69 1.85 1.02.46 2.14.67 3.37.65 1.32-.03 2.54-.36 3.68-1.01 1.14-.65 2.12-1.64 2.93-2.99.82-1.35 1.45-3.07 1.9-5.17.45-2.11.65-4.62.59-7.56-.05-2.66-.41-4.92-1.06-6.77-.65-1.85-1.56-3.34-2.71-4.48"/>
    </g>
</svg>