<?xml version="1.0" encoding="UTF-8"?>
<svg width="500px" height="500px" viewBox="0 0 500 500" version="1.1" xmlns="http://www.w3.org/2000/svg" xmlns:xlink="http://www.w3.org/1999/xlink">
    <!-- Generator: Sketch 40.1 (33804) - http://www.bohemiancoding.com/sketch -->
    <title>5</title>
    <desc>Created with Sketch.</desc>
    <defs></defs>
    <g id="Welcome" stroke="none" stroke-width="1" fill="none" fill-rule="evenodd">
        <g id="5">
            <path d="M301.968,124.838048 C301.772,122.354048 301.308,119.730048 300.356,116.846048 C281.852,60.9900484 209.912,7.97004837 225.832,35.7140484 C241.752,63.4620484 217.408,110.030048 208.464,94.4580484 C199.524,78.8900484 170.468,63.8700484 177.808,76.8020484 C181.88,83.9780484 178.628,94.3340484 174.932,102.142048 C159.912,104.426048 143.456,107.846048 125.388,112.622048 C114.328,115.546048 98.296,121.574048 84.248,133.966048 C73.808,125.170048 57.048,113.914048 42.7,117.370048 C42.7,117.370048 49.816,144.802048 66.644,155.742048 C65.572,157.650048 64.568,159.650048 63.612,161.718048 C53.272,153.894048 39.264,146.090048 27,149.050048 C27,149.050048 35.408,181.422048 55.552,189.838048 C54.424,197.846048 54.02,206.642048 54.524,216.338048 C54.524,216.338048 22.516,355.502048 43.16,413.222048 C43.16,413.222048 116.548,462.566048 162.052,475.442048 C162.052,475.442048 257.684,386.742048 270.54,334.186048 L239.528,261.726048 C239.8,244.866048 250.192,229.774048 265.908,223.670048 C286.776,215.570048 313.628,203.078048 319.848,190.534048 C325.084,179.962048 326.084,148.114048 301.968,124.838048" id="Fill-235" fill="#B394C5"></path>
            <polygon id="Fill-251" fill="#FEFEFE" points="160.572 183.696 165.988 152.068 160.424 151.112 155 182.74"></polygon>
            <polygon id="Fill-253" fill="#FEFEFE" points="175.628 173.104 144 167.684 144.952 162.112 176.58 167.536"></polygon>
        </g>
    </g>
</svg>