<svg xmlns="http://www.w3.org/2000/svg" viewBox="0 0 500 500">
    <g fill="none" fill-rule="evenodd">
        <path fill="#7BC142" d="M433.742 292.963c-12.16 7.305-38.794 3.468-64.11-2.846-4.938-36.75-10.333-68.97-14.44-76.954-10.04-19.505-31.5-83.248-50.79-98.124-21.96-16.94-56.694-37.24-96.854-27.786 0 0-80.324-48.47-95.678-40.195 0 0-47.25 1.18-83.865 46.105-36.616 44.924-25.712 70.57-12.99 92.214 11.36 19.334 126.8 129.24 130.73 140.872 3.925 11.633 53.534-13.195 49.986-43.93 0 0 8.85 12.164 41.498 12.964 2.508 3.143 7.63 10.775 8.478 21.597 1.142 14.437-6.45 18.236 0 21.277 6.457 3.04 19.743-.38 23.92-9.874.87-1.992 1.378-4.202 1.633-6.447.657.124 1.28.16 1.845.09 9.45-1.183 31.896 30.733 41.93 32.51 10.044 1.77 32.487 66.203 24.218 82.16-8.27 15.963-24.216 20.1-27.166 17.144-2.95-2.957-7.084-13.005-12.402-12.414-5.314.59-6.886 11.433-14.565 13.204-7.683 1.772-15.556.393-16.737 11.626-1.18 11.226 29.528 21.28 34.256 21.28 4.723 0 23.902.005 33.66-5.718 9.76-5.72 25.986-15.37 33.075-25.022 4.076-5.555 13.582-17.142 13.582-38.423 0-10.337-4.18-54.446-9.635-99.305 37.414-.556 60.077-18.1 62.49-22.035 3.544-5.777-2.067-3.975-2.067-3.975"/>
        <path fill="#FEFEFE" d="M285.26 201.94l5.158-30.13-5.3-.91-5.157 30.13"/>
        <path fill="#FEFEFE" d="M299.593 191.85l-30.102-5.163.91-5.308 30.1 5.162"/>
    </g>
</svg>
