<svg xmlns="http://www.w3.org/2000/svg" viewBox="0 0 500 500">
    <g fill="none" fill-rule="evenodd">
        <path fill="#00ADEF" d="M332.858 155.205C321.463 143.008 309.92 134.03 288.372 135c-.33-.966.49.74 0 0-6.152-9.286-21.022-10.972-28.046-9.784-10.5-19.72-26.894-35.184-49.185-44.62-42.13-17.85-65.26 6.672-93.55-15.658-28.294-22.33-17.737.202-13.805 6.22 0 0-10.51-9.906-9.673-4.48.46 2.993 1.18 7.64 1.73 11.207-1.512-2.52-3.22-4.475-4.51-3.436-2.19 1.77-1.19 7.69.72 12.16-11.073 9.25-38.28 34.82-35.845 60.77 3.05 32.49-93.25 109.78 28.272 204.59 82.424 64.307 133.37 127.31 133.37 127.31s65.022-113.07 45.677-187.97c-.414-1.597-.428-3.27-1.022-4.81l-11.34-29.47s17.432-21.38 23.754-49.867c16.177 1.19 34.84-2.9 25.005-8.872-9.386-5.692-18.7-14.652-18.71-14.882 8.553.304 18.936-.258 12.67-2.247-2.982-.943-10.845-2.466-13.885-2.67 24.574-13.697 42.138-18.06 52.097-19.253 2.083-.25 2.196-2.506.764-4.04"/>
        <path fill="#FEFEFE" d="M221.517 168.78l-23.723-23.248-4.094 4.178 23.723 23.245"/>
        <path fill="#FEFEFE" d="M221.324 149.434L198.07 173.15l-4.178-4.094 23.253-23.715"/>
    </g>
</svg>
