<svg xmlns="http://www.w3.org/2000/svg" viewBox="0 0 500 500">
  <g fill="none" fill-rule="evenodd">
    <path fill="#FEEF8E" d="M297.713 224.313c0-80.008-64.855-144.867-144.855-144.867C72.855 79.446 8 144.306 8 224.313c0 80.004 64.855 144.863 144.858 144.863 80 0 144.855-64.86 144.855-144.863"/>
    <path fill="#F1625F" d="M127.006 237.335s-66.437-8.89-86.856 15.28c0 0 11.51 13.332 51.895 12.535 0 0-85.783 71.23-74.965 101.586C45.107 445.353 216.658 474.7 252.874 474.743c0 0-20.386-71.753-3.39-105.912 16.992-34.153 59.238-37.484 81.556-47.683 22.325-10.198 10.92-23.99 10.92-23.99s-42.824.262-49.02-10.154c-8.288-13.93 7.406-5.244 40.76-16.885 0 0 34.898-2.72 28.208-38.822-6.695-36.107-20.378-36.41-20.378-36.41s-96.483-4.872-102.878-11.825c-6.4-6.955-22.03-11.14-29.957-8.51-7.922 2.63-47.67 8.688-81.69 62.788"/>
    <path fill="#F1625F" d="M119.46 247.11s-11.5-13.652-4.746-39.107c10.97-41.36 131.326-90.616 139.458-137.862 0 0 6.33 47.06-58.895 98.365-65.227 51.303-75.817 78.606-75.817 78.606m185.064 30.58l1.675 4.94 8.085-9.256 2.656 9.1 11.047-12.084.143 9.802s7.835-3.165 13.31-10c5.47-6.838-27.187-7.126-36.917 7.496"/>
    <path fill="#F1625F" d="M121.68 248.59s-14.644-23.98 19.32-53.242c33.97-29.26 97.748-49.08 119.096-86.39C281.442 71.65 283.294 40.488 277.024 25c0 0 43.902 79.432-26.165 138.416-70.07 58.98-121.906 99.756-129.18 85.175"/>
    <path fill="#FEFEFE" d="M227.88 241.673l-27.42-13.29-2.337 4.83 27.42 13.288"/>
    <path fill="#FEFEFE" d="M222.06 224.902l-13.29 27.42-4.824-2.338 13.286-27.42"/>
  </g>
</svg>
