<svg xmlns="http://www.w3.org/2000/svg" viewBox="0 0 500 500">
  <g fill="none" fill-rule="evenodd">
    <path fill="#FBCC0A" d="M261.68 259.223c3.516-13.55 5.895-25.84 7.376-36.97 3.248 6.854 5.447 13.554 6.37 20.06-1.107.732-2.13 1.58-3.03 2.562-4.598 5.01-4.46 13.9-3.117 21.705-2.14-1.763-5.07-3.474-9.07-4.937.95-1.477 1.46-2.42 1.46-2.42M410.35 309.7c-1.177-14.697-17-17.726-17-17.726-52.272-6.544-51.28-13.047-56.482-20.924 26.7-22.25 11.198-61.15 11.198-61.15-31.613 13.995-46.46 51.82-46.46 51.82s-.305 2.76.024 6.23l-.004.005c-2.57-19.228 4.955-22.48 3.74-25.72-.227-.61-1.21-1.268-2.715-1.858.02-.01 47.27-49.916 41.23-116.228 0 0 .62-19.14-3.54-17.37-4.15 1.76-.54 58.74-26.22 89.66 0 0-11.82 7.38-5.94-14.57 5.88-21.94 13.81-77.93-7.35-109.64 0 0-8.19-6.98-4.98 3.26 3.21 10.24 14.44 57.05-2.45 89.42-5.75 11.02-14.49 12.543-23.53 9.423-4.25-33.236-18.57-46.445-21.98-48.247-5.48-2.9-3.07 4.06-3.07 4.06 5.61 7.52 8.61 20.03 9.25 34.814-11.43-9.313-20.56-21.854-20.88-25.766-.68-8.536 11.45-83.47-35.19-123.633 0 0-2.483-1.232.758 9.48 3.244 10.717 30.926 64.33 7.88 80.49-23.05 16.16-78.52-44.77-78.52-44.77s-8.52-5.044-5.465 3.3c3.056 8.35 30.795 56.71 77.99 73.927 15.2 5.54 23.007 24.44 33.426 35.91 6.69 7.37 12.88 14.66 18.345 21.832-1.46 10.44-3.792 21.08-6.94 31.24-11.374 36.7-31.998-.3-33.426-6.197-1.43-5.895-27.64-47.13-38.484-51.47-10.85-4.34-3.86 5.516-3.86 5.516 13.904 12.723 40.07 83.15 40.074 83.16-1.09.08-2.197.17-3.324.264-74.89 6.474-65.9-21.036-76.084-35.01-.246-.34-.5-.72-.762-1.14.734-6.556 3.15-16.01 9.32-29.13 14.68-31.24-5.813-72.546-5.813-72.546-1.75-2.36-4.75-2.64.63 13.786 5.116 15.61.4 34.807-.83 43.256-.79 5.4-8.31 15.5-13.22 25.31-8.936-20.67-14.46-52.596-18.723-68.52-.57-2.12-3.682-1.768-3.75.427-.572 18.286.566 49.476 3.05 64.247 3.903 23.19 12.97 40.26 24.89 52.784-13.74-5.09-25.64-11.19-30.64-17.3-12.696-15.49-8.23-27.21-8.23-27.21 8.67-54.61-20.04-93.353-28.557-98.4-8.52-5.042-2.54 4.026-2.54 4.026l8.91 15.99c23.6 56.33-.07 70.63-.07 70.63-40.3-9.546-44.7-45.574-55.17-57.144-10.477-11.565-7.12.574-7.12.574 10.65 55.45 53.915 77.28 53.915 77.28 21.93 43.45 64.86 50.36 88.413 51.16 42.1 12.39 66.48 10.94 78.535 9.98 19.44-1.56 20.23 13.51 20.23 13.51-12.358-3.742-52.08-13.65-85.82 1.76 0 0 20.64 41 58.59 42.098-38.987 85.31 20.845 145.69 20.845 145.69s56.405-32.594 75.55-51.514c22.627-22.353 17.33-58.45 17.33-58.45 4.855 1.045 43.76-19.723 43.76-19.723 13.946-5.36 16.668-12.314 26.76-17.42 4.777-2.415 6.44-5.01 6.86-7.07.388-1.844-1.5-3.364-3.224-2.622-9.155 3.935-23.572 5.087-23.572 5.087 15.96-9.386 31.627-8.26 30.45-22.956"/>
    <path fill="#FEFEFE" d="M328.044 309.233L310 291.468l-3.13 3.177 18.046 17.765"/>
    <path fill="#FEFEFE" d="M327.93 294.482l-17.768 18.04-3.177-3.124 17.768-18.044"/>
  </g>
</svg>
